<svg data-v-423bf9ae="" xmlns="http://www.w3.org/2000/svg" viewBox="0 0 460 90" class="iconLeftSlogan"><!----><!----><!----><g data-v-423bf9ae="" id="b933cac0-6fd8-4b8c-ab9b-cd5ebd3ed9b5" fill="black" transform="matrix(5.410279456668789,0,0,5.410279456668789,182.51038454145507,-14.553652524854876)"><path d="M3.69 12.15L3.69 12.15L3.69 12.15Q3.96 12.15 4.23 12.09L4.23 12.09L4.23 12.09Q4.50 12.04 4.71 11.91L4.71 11.91L4.71 11.91Q4.92 11.78 5.05 11.57L5.05 11.57L5.05 11.57Q5.18 11.37 5.18 11.07L5.18 11.07L5.18 11.07Q5.18 10.71 4.99 10.45L4.99 10.45L4.99 10.45Q4.81 10.20 4.50 10.00L4.50 10.00L4.50 10.00Q4.19 9.81 3.80 9.65L3.80 9.65L3.80 9.65Q3.41 9.48 3.00 9.30L3.00 9.30L3.00 9.30Q2.59 9.13 2.20 8.90L2.20 8.90L2.20 8.90Q1.81 8.68 1.50 8.37L1.50 8.37L1.50 8.37Q1.20 8.05 1.01 7.62L1.01 7.62L1.01 7.62Q0.82 7.18 0.82 6.58L0.82 6.58L0.82 6.58Q0.82 5.88 1.09 5.30L1.09 5.30L1.09 5.30Q1.37 4.73 1.87 4.33L1.87 4.33L1.87 4.33Q2.38 3.93 3.10 3.71L3.10 3.71L3.10 3.71Q3.83 3.49 4.72 3.49L4.72 3.49L4.72 3.49Q4.96 3.49 5.28 3.51L5.28 3.51L5.28 3.51Q5.61 3.53 5.97 3.57L5.97 3.57L5.97 3.57Q6.34 3.61 6.72 3.67L6.72 3.67L6.72 3.67Q7.10 3.74 7.46 3.83L7.46 3.83L7.06 5.58L6.95 5.63L6.95 5.63Q6.64 5.50 6.34 5.40L6.34 5.40L6.34 5.40Q6.03 5.30 5.74 5.24L5.74 5.24L5.74 5.24Q5.45 5.18 5.19 5.15L5.19 5.15L5.19 5.15Q4.94 5.13 4.74 5.13L4.74 5.13L4.74 5.13Q4.12 5.13 3.76 5.37L3.76 5.37L3.76 5.37Q3.40 5.62 3.40 6.11L3.40 6.11L3.40 6.11Q3.40 6.47 3.59 6.71L3.59 6.71L3.59 6.71Q3.77 6.96 4.08 7.15L4.08 7.15L4.08 7.15Q4.39 7.34 4.78 7.50L4.78 7.50L4.78 7.50Q5.17 7.66 5.58 7.84L5.58 7.84L5.58 7.84Q5.99 8.02 6.38 8.24L6.38 8.24L6.38 8.24Q6.77 8.46 7.08 8.78L7.08 8.78L7.08 8.78Q7.39 9.10 7.58 9.54L7.58 9.54L7.58 9.54Q7.77 9.98 7.77 10.59L7.77 10.59L7.77 10.59Q7.77 11.31 7.49 11.90L7.49 11.90L7.49 11.90Q7.21 12.49 6.69 12.91L6.69 12.91L6.69 12.91Q6.17 13.32 5.43 13.55L5.43 13.55L5.43 13.55Q4.68 13.78 3.75 13.78L3.75 13.78L3.75 13.78Q3.42 13.78 3.02 13.75L3.02 13.75L3.02 13.75Q2.63 13.71 2.20 13.64L2.20 13.64L2.20 13.64Q1.78 13.56 1.34 13.44L1.34 13.44L1.34 13.44Q0.90 13.32 0.48 13.13L0.48 13.13L0.87 11.38L1.01 11.31L1.01 11.31Q1.42 11.50 1.77 11.65L1.77 11.65L1.77 11.65Q2.12 11.80 2.44 11.91L2.44 11.91L2.44 11.91Q2.77 12.02 3.08 12.09L3.08 12.09L3.08 12.09Q3.38 12.15 3.69 12.15ZM15.03 11.73L15.03 12.84L15.03 12.84Q14.69 13.12 14.37 13.30L14.37 13.30L14.37 13.30Q14.05 13.48 13.73 13.59L13.73 13.59L13.73 13.59Q13.41 13.69 13.09 13.74L13.09 13.74L13.09 13.74Q12.78 13.78 12.45 13.78L12.45 13.78L12.45 13.78Q11.59 13.78 10.93 13.53L10.93 13.53L10.93 13.53Q10.27 13.28 9.81 12.83L9.81 12.83L9.81 12.83Q9.36 12.38 9.12 11.76L9.12 11.76L9.12 11.76Q8.89 11.14 8.89 10.39L8.89 10.39L8.89 10.39Q8.89 9.47 9.24 8.71L9.24 8.71L9.24 8.71Q9.58 7.95 10.19 7.41L10.19 7.41L10.19 7.41Q10.79 6.86 11.61 6.56L11.61 6.56L11.61 6.56Q12.43 6.26 13.38 6.26L13.38 6.26L13.38 6.26Q13.53 6.26 13.72 6.27L13.72 6.27L13.72 6.27Q13.92 6.28 14.15 6.31L14.15 6.31L14.15 6.31Q14.38 6.34 14.63 6.38L14.63 6.38L14.63 6.38Q14.88 6.43 15.15 6.51L15.15 6.51L14.78 8.19L14.66 8.26L14.66 8.26Q14.55 8.20 14.41 8.13L14.41 8.13L14.41 8.13Q14.27 8.06 14.10 8.00L14.10 8.00L14.10 8.00Q13.92 7.95 13.73 7.91L13.73 7.91L13.73 7.91Q13.54 7.88 13.34 7.88L13.34 7.88L13.34 7.88Q12.97 7.88 12.66 8.02L12.66 8.02L12.66 8.02Q12.36 8.17 12.14 8.44L12.14 8.44L12.14 8.44Q11.93 8.71 11.81 9.10L11.81 9.10L11.81 9.10Q11.69 9.49 11.69 9.97L11.69 9.97L11.69 9.97Q11.69 10.53 11.84 10.91L11.84 10.91L11.84 10.91Q11.99 11.30 12.26 11.55L12.26 11.55L12.26 11.55Q12.52 11.79 12.90 11.90L12.90 11.90L12.90 11.90Q13.28 12.02 13.73 12.02L13.73 12.02L13.73 12.02Q13.88 12.02 14.02 12.00L14.02 12.00L14.02 12.00Q14.16 11.99 14.32 11.96L14.32 11.96L14.32 11.96Q14.47 11.92 14.64 11.87L14.64 11.87L14.64 11.87Q14.81 11.81 15.03 11.73L15.03 11.73ZM20.42 12.61L20.42 12.61L20.42 12.61Q20.20 12.79 19.94 13.00L19.94 13.00L19.94 13.00Q19.67 13.20 19.36 13.37L19.36 13.37L19.36 13.37Q19.05 13.55 18.70 13.67L18.70 13.67L18.70 13.67Q18.35 13.78 17.97 13.78L17.97 13.78L17.97 13.78Q17.47 13.78 17.11 13.58L17.11 13.58L17.11 13.58Q16.75 13.38 16.52 13.07L16.52 13.07L16.52 13.07Q16.30 12.76 16.19 12.40L16.19 12.40L16.19 12.40Q16.08 12.03 16.08 11.70L16.08 11.70L16.08 11.70Q16.08 11.17 16.33 10.73L16.33 10.73L16.33 10.73Q16.58 10.28 17.09 9.96L17.09 9.96L17.09 9.96Q17.60 9.63 18.37 9.45L18.37 9.45L18.37 9.45Q19.13 9.27 20.16 9.27L20.16 9.27L20.31 9.27L20.31 8.91L20.31 8.91Q20.31 8.39 19.99 8.13L19.99 8.13L19.99 8.13Q19.67 7.88 19.12 7.88L19.12 7.88L19.12 7.88Q18.87 7.88 18.59 7.94L18.59 7.94L18.59 7.94Q18.31 8.00 18.03 8.11L18.03 8.11L18.03 8.11Q17.75 8.22 17.48 8.36L17.48 8.36L17.48 8.36Q17.21 8.50 16.96 8.67L16.96 8.67L16.84 8.60L16.39 7.01L16.39 7.01Q17.30 6.62 18.12 6.44L18.12 6.44L18.12 6.44Q18.94 6.26 19.77 6.26L19.77 6.26L19.77 6.26Q20.43 6.26 21.02 6.38L21.02 6.38L21.02 6.38Q21.61 6.50 22.06 6.78L22.06 6.78L22.06 6.78Q22.51 7.05 22.78 7.52L22.78 7.52L22.78 7.52Q23.04 7.98 23.04 8.67L23.04 8.67L23.04 11.36L23.04 11.36Q23.04 11.63 23.15 11.82L23.15 11.82L23.15 11.82Q23.25 12.02 23.54 12.02L23.54 12.02L23.54 12.02Q23.63 12.02 23.70 12.01L23.70 12.01L23.70 12.01Q23.78 12.00 23.88 11.96L23.88 11.96L23.88 13.07L23.88 13.07Q23.39 13.41 22.91 13.60L22.91 13.60L22.91 13.60Q22.42 13.78 21.97 13.78L21.97 13.78L21.97 13.78Q21.44 13.78 21.05 13.50L21.05 13.50L21.05 13.50Q20.66 13.23 20.42 12.61ZM20.31 11.70L20.31 10.12L20.13 10.12L20.13 10.12Q19.68 10.12 19.37 10.19L19.37 10.19L19.37 10.19Q19.06 10.25 18.87 10.38L18.87 10.38L18.87 10.38Q18.68 10.51 18.59 10.70L18.59 10.70L18.59 10.70Q18.50 10.89 18.50 11.14L18.50 11.14L18.50 11.14Q18.50 11.38 18.58 11.55L18.58 11.55L18.58 11.55Q18.65 11.72 18.77 11.82L18.77 11.82L18.77 11.82Q18.89 11.93 19.04 11.97L19.04 11.97L19.04 11.97Q19.20 12.02 19.36 12.02L19.36 12.02L19.36 12.02Q19.58 12.02 19.82 11.94L19.82 11.94L19.82 11.94Q20.07 11.87 20.31 11.70L20.31 11.70ZM25.04 13.64L25.04 6.40L27.38 6.40L27.69 8.50L27.69 8.50Q27.81 8.29 27.92 8.08L27.92 8.08L27.92 8.08Q28.04 7.88 28.14 7.70L28.14 7.70L28.14 7.70Q28.24 7.53 28.31 7.40L28.31 7.40L28.31 7.40Q28.38 7.27 28.40 7.23L28.40 7.23L28.40 7.23Q28.53 7.02 28.69 6.84L28.69 6.84L28.69 6.84Q28.84 6.67 29.04 6.54L29.04 6.54L29.04 6.54Q29.23 6.41 29.47 6.33L29.47 6.33L29.47 6.33Q29.72 6.26 30.02 6.26L30.02 6.26L30.02 6.26Q30.22 6.26 30.48 6.32L30.48 6.32L30.48 6.32Q30.73 6.37 30.96 6.49L30.96 6.49L30.66 8.93L30.66 8.93Q30.59 8.91 30.48 8.90L30.48 8.90L30.48 8.90Q30.37 8.89 30.24 8.89L30.24 8.89L30.24 8.89Q30.11 8.88 29.98 8.88L29.98 8.88L29.98 8.88Q29.86 8.87 29.77 8.87L29.77 8.87L29.77 8.87Q29.47 8.87 29.18 8.91L29.18 8.91L29.18 8.91Q28.88 8.96 28.62 9.03L28.62 9.03L28.62 9.03Q28.36 9.11 28.14 9.23L28.14 9.23L28.14 9.23Q27.92 9.34 27.77 9.47L27.77 9.47L27.77 13.64L25.04 13.64ZM32.33 13.64L32.33 2.69L35.06 2.69L35.06 13.64L32.33 13.64ZM43.55 11.73L43.55 12.84L43.55 12.84Q43.14 13.13 42.74 13.31L42.74 13.31L42.74 13.31Q42.33 13.49 41.95 13.60L41.95 13.60L41.95 13.60Q41.56 13.70 41.19 13.74L41.19 13.74L41.19 13.74Q40.82 13.78 40.47 13.78L40.47 13.78L40.47 13.78Q39.53 13.78 38.80 13.55L38.80 13.55L38.80 13.55Q38.08 13.31 37.58 12.87L37.58 12.87L37.58 12.87Q37.08 12.42 36.82 11.78L36.82 11.78L36.82 11.78Q36.57 11.14 36.57 10.32L36.57 10.32L36.57 10.32Q36.57 9.35 36.90 8.60L36.90 8.60L36.90 8.60Q37.24 7.85 37.81 7.33L37.81 7.33L37.81 7.33Q38.38 6.81 39.12 6.54L39.12 6.54L39.12 6.54Q39.87 6.26 40.69 6.26L40.69 6.26L40.69 6.26Q41.41 6.26 42.01 6.48L42.01 6.48L42.01 6.48Q42.62 6.69 43.05 7.11L43.05 7.11L43.05 7.11Q43.48 7.53 43.72 8.16L43.72 8.16L43.72 8.16Q43.96 8.78 43.96 9.58L43.96 9.58L43.96 9.58Q43.96 9.89 43.93 10.10L43.93 10.10L43.93 10.10Q43.91 10.32 43.88 10.43L43.88 10.43L39.37 10.43L39.37 10.43Q39.37 10.88 39.52 11.18L39.52 11.18L39.52 11.18Q39.68 11.48 39.96 11.67L39.96 11.67L39.96 11.67Q40.25 11.85 40.66 11.94L40.66 11.94L40.66 11.94Q41.06 12.02 41.57 12.02L41.57 12.02L41.57 12.02Q41.99 12.02 42.51 11.96L42.51 11.96L42.51 11.96Q43.04 11.89 43.55 11.73L43.55 11.73ZM39.37 9.58L41.50 9.58L41.50 9.58Q41.50 9.13 41.43 8.81L41.43 8.81L41.43 8.81Q41.35 8.48 41.22 8.27L41.22 8.27L41.22 8.27Q41.08 8.07 40.89 7.97L40.89 7.97L40.89 7.97Q40.69 7.88 40.46 7.88L40.46 7.88L40.46 7.88Q39.95 7.88 39.66 8.30L39.66 8.30L39.66 8.30Q39.37 8.73 39.37 9.58L39.37 9.58ZM46.03 11.07L46.03 8.01L44.58 8.01L44.74 6.89L44.74 6.89Q45.11 6.75 45.38 6.62L45.38 6.62L45.38 6.62Q45.64 6.50 45.85 6.37L45.85 6.37L45.85 6.37Q46.05 6.23 46.21 6.08L46.21 6.08L46.21 6.08Q46.37 5.92 46.52 5.71L46.52 5.71L46.52 5.71Q46.67 5.50 46.83 5.22L46.83 5.22L46.83 5.22Q46.99 4.94 47.20 4.57L47.20 4.57L48.57 4.57L48.57 6.40L51.11 6.40L50.76 8.01L48.76 8.01L48.76 10.79L48.76 10.79Q48.76 11.47 49.11 11.74L49.11 11.74L49.11 11.74Q49.45 12.02 50.12 12.02L50.12 12.02L50.12 12.02Q50.36 12.02 50.62 11.98L50.62 11.98L50.62 11.98Q50.87 11.94 51.12 11.84L51.12 11.84L51.12 12.95L51.12 12.95Q50.55 13.38 49.85 13.58L49.85 13.58L49.85 13.58Q49.16 13.78 48.47 13.78L48.47 13.78L48.47 13.78Q47.79 13.78 47.32 13.59L47.32 13.59L47.32 13.59Q46.85 13.40 46.57 13.05L46.57 13.05L46.57 13.05Q46.28 12.69 46.15 12.20L46.15 12.20L46.15 12.20Q46.03 11.70 46.03 11.07L46.03 11.07Z"></path></g><!----><g data-v-423bf9ae="" id="f7704456-907f-4d81-ae2d-298715ba31f8" transform="matrix(1.6510731328733677,0,0,1.6510731328733677,0.44634335633162436,-38.011792708062686)" stroke="none" fill="black"><path d="M41.612 74.281v-3.32c-2.225-.104-4.383-.77-5.646-1.503l.997-4.091c1.395.805 3.354 1.539 5.513 1.539 1.927 0 3.221-.805 3.221-2.167 0-1.328-1.063-2.169-3.554-3.042-3.554-1.26-5.978-3.006-5.978-6.396 0-3.111 2.059-5.523 5.612-6.223V45.76h3.254v3.074c2.191.071 3.686.595 4.848 1.154l-.996 3.95c-.832-.42-2.392-1.225-4.784-1.225-2.159 0-2.856 1.016-2.856 1.991 0 1.12 1.162 1.889 4.018 2.973 3.952 1.47 5.514 3.392 5.514 6.571 0 3.111-2.061 5.768-5.879 6.432v3.602h-3.284v-.001z"></path><path d="M52.914 77.525c4.619-3.646 7.553-9.855 7.553-17.031 0-11.292-7.562-20.448-16.884-20.448-9.325 0-16.882 9.156-16.882 20.448 0 7.173 2.908 13.363 7.522 17.013l.046.06H0V35.546h87.66v42.021H52.859l.055-.042zm28.311-6.395v-9.485h-2.709v6.775H64.963v2.71h16.262zm-58.269 0v-2.71H9.405v-6.775H6.694v9.485h16.262zm58.269-19.648v-9.484H64.963v2.708h13.553v6.776h2.709zm-71.82 0v-6.776h13.551v-2.709H6.694v9.485h2.711z"></path><path d="M94.105 70.281h-2.99V31.999H9.979v-2.992h84.126z"></path><path d="M100 63.197h-2.991V26.049H18.367v-2.992H100z"></path></g><!----><g data-v-423bf9ae="" id="a4f1ebd9-2e19-465e-967a-280cf20d3ed4" fill="black" transform="matrix(1.1541321388040118,0,0,1.1541321388040118,184.7264522194236,53.59456800538538)"><path d="M1.57 6.33L0.33 6.16L0.36 5.89L3.47 5.89L3.44 6.16L2.28 6.32L2.28 9.95L7.19 9.95L7.19 6.33L5.93 6.16L5.98 5.89L9.09 5.89L9.04 6.16L7.90 6.32L7.90 13.95L9.15 14.08L9.10 14.40L6.00 14.40L6.06 14.11L7.19 13.90L7.19 10.36L2.28 10.36L2.28 13.95L3.55 14.08L3.48 14.40L0.39 14.40L0.42 14.11L1.57 13.90L1.57 6.33ZM20.92 6.98L19.55 10.75L22.24 10.75L20.92 6.98ZM19.60 14.40L16.87 14.40L16.91 14.11L17.88 13.90L20.87 5.82L21.23 5.73L24.07 13.95L24.97 14.08L24.92 14.39L22.12 14.39L22.18 14.10L23.32 13.90L22.37 11.13L19.41 11.13L18.40 13.95L19.66 14.08L19.60 14.40ZM36.07 14.40L32.66 14.40L32.70 14.11L33.78 13.90L33.78 6.51L32.67 6.36L32.73 6.12L32.73 6.12Q32.90 6.09 33.35 6.02L33.35 6.02L33.35 6.02Q33.80 5.94 34.03 5.91L34.03 5.91L34.03 5.91Q34.25 5.88 34.67 5.84L34.67 5.84L34.67 5.84Q35.08 5.81 35.49 5.81L35.49 5.81L35.49 5.81Q36.18 5.81 36.77 5.96L36.77 5.96L36.77 5.96Q37.36 6.10 37.82 6.40L37.82 6.40L37.82 6.40Q38.28 6.69 38.54 7.18L38.54 7.18L38.54 7.18Q38.80 7.66 38.80 8.29L38.80 8.29L38.80 8.29Q38.80 8.90 38.52 9.43L38.52 9.43L38.52 9.43Q38.24 9.97 37.78 10.33L37.78 10.33L37.78 10.33Q37.32 10.69 36.72 10.90L36.72 10.90L36.72 10.90Q36.11 11.10 35.48 11.10L35.48 11.10L35.48 11.10Q35.21 11.10 35.14 11.09L35.14 11.09L35.07 10.80L35.44 10.78L35.44 10.78Q36.10 10.75 36.60 10.55L36.60 10.55L36.60 10.55Q37.09 10.36 37.38 10.03L37.38 10.03L37.38 10.03Q37.67 9.70 37.81 9.30L37.81 9.30L37.81 9.30Q37.95 8.90 37.95 8.43L37.95 8.43L37.95 8.43Q37.95 7.98 37.79 7.57L37.79 7.57L37.79 7.57Q37.62 7.16 37.30 6.83L37.30 6.83L37.30 6.83Q36.98 6.50 36.45 6.31L36.45 6.31L36.45 6.31Q35.93 6.11 35.28 6.11L35.28 6.11L34.53 6.15L34.53 13.95L36.13 14.08L36.07 14.40ZM49.90 14.40L46.49 14.40L46.53 14.11L47.61 13.90L47.61 6.51L46.50 6.36L46.56 6.12L46.56 6.12Q46.73 6.09 47.18 6.02L47.18 6.02L47.18 6.02Q47.63 5.94 47.85 5.91L47.85 5.91L47.85 5.91Q48.08 5.88 48.49 5.84L48.49 5.84L48.49 5.84Q48.90 5.81 49.32 5.81L49.32 5.81L49.32 5.81Q50.01 5.81 50.60 5.96L50.60 5.96L50.60 5.96Q51.19 6.10 51.65 6.40L51.65 6.40L51.65 6.40Q52.11 6.69 52.37 7.18L52.37 7.18L52.37 7.18Q52.63 7.66 52.63 8.29L52.63 8.29L52.63 8.29Q52.63 8.90 52.35 9.43L52.35 9.43L52.35 9.43Q52.07 9.97 51.61 10.33L51.61 10.33L51.61 10.33Q51.15 10.69 50.54 10.90L50.54 10.90L50.54 10.90Q49.94 11.10 49.31 11.10L49.31 11.10L49.31 11.10Q49.03 11.10 48.97 11.09L48.97 11.09L48.90 10.80L49.27 10.78L49.27 10.78Q49.93 10.75 50.43 10.55L50.43 10.55L50.43 10.55Q50.92 10.36 51.21 10.03L51.21 10.03L51.21 10.03Q51.50 9.70 51.64 9.30L51.64 9.30L51.64 9.30Q51.78 8.90 51.78 8.43L51.78 8.43L51.78 8.43Q51.78 7.98 51.61 7.57L51.61 7.57L51.61 7.57Q51.45 7.16 51.13 6.83L51.13 6.83L51.13 6.83Q50.80 6.50 50.28 6.31L50.28 6.31L50.28 6.31Q49.76 6.11 49.11 6.11L49.11 6.11L48.36 6.15L48.36 13.95L49.96 14.08L49.90 14.40ZM61.26 6.35L60.31 6.15L60.33 5.90L63.18 5.90L63.16 6.15L62.02 6.32L64.16 10.49L66.28 6.34L65.02 6.14L65.03 5.89L67.70 5.89L67.68 6.14L66.79 6.32L64.41 11.05L64.41 13.94L65.65 14.08L65.59 14.40L62.45 14.40L62.49 14.11L63.68 13.90L63.68 11.05L61.26 6.35ZM87.21 6.15L87.21 9.75L89.33 9.75L89.33 9.75Q89.78 9.45 90.12 9.01L90.12 9.01L90.12 9.01Q90.45 8.57 90.45 8.02L90.45 8.02L90.45 8.02Q90.45 7.08 89.81 6.59L89.81 6.59L89.81 6.59Q89.17 6.11 88.04 6.11L88.04 6.11L88.04 6.11Q87.39 6.11 87.21 6.15L87.21 6.15ZM87.21 10.08L87.21 14.03L88.89 14.03L88.89 14.03Q89.52 14.03 89.98 13.85L89.98 13.85L89.98 13.85Q90.44 13.68 90.68 13.38L90.68 13.38L90.68 13.38Q90.92 13.08 91.03 12.74L91.03 12.74L91.03 12.74Q91.14 12.41 91.14 12.02L91.14 12.02L91.14 12.02Q91.14 11.68 91.03 11.36L91.03 11.36L91.03 11.36Q90.92 11.04 90.69 10.74L90.69 10.74L90.69 10.74Q90.45 10.45 90.00 10.26L90.00 10.26L90.00 10.26Q89.56 10.08 88.96 10.08L88.96 10.08L87.21 10.08ZM88.21 14.40L85.31 14.40L85.36 14.11L86.52 13.90L86.52 6.51L85.34 6.36L85.41 6.12L85.41 6.12Q85.53 6.10 85.97 6.03L85.97 6.03L85.97 6.03Q86.41 5.96 86.58 5.94L86.58 5.94L86.58 5.94Q86.75 5.91 87.11 5.87L87.11 5.87L87.11 5.87Q87.47 5.83 87.78 5.82L87.78 5.82L87.78 5.82Q88.09 5.80 88.44 5.80L88.44 5.80L88.44 5.80Q89.72 5.80 90.44 6.38L90.44 6.38L90.44 6.38Q91.15 6.96 91.15 7.79L91.15 7.79L91.15 7.79Q91.15 8.98 89.74 9.76L89.74 9.76L89.74 9.80L89.74 9.80Q90.73 9.86 91.30 10.46L91.30 10.46L91.30 10.46Q91.87 11.05 91.87 11.80L91.87 11.80L91.87 11.80Q91.87 12.22 91.77 12.58L91.77 12.58L91.77 12.58Q91.66 12.95 91.40 13.29L91.40 13.29L91.40 13.29Q91.14 13.63 90.73 13.87L90.73 13.87L90.73 13.87Q90.33 14.11 89.68 14.25L89.68 14.25L89.68 14.25Q89.04 14.40 88.21 14.40L88.21 14.40ZM103.64 6.98L102.27 10.75L104.96 10.75L103.64 6.98ZM102.32 14.40L99.59 14.40L99.63 14.11L100.60 13.90L103.59 5.82L103.95 5.73L106.79 13.95L107.69 14.08L107.64 14.39L104.84 14.39L104.90 14.10L106.04 13.90L105.09 11.13L102.14 11.13L101.12 13.95L102.38 14.08L102.32 14.40ZM116.63 6.36L115.36 6.14L115.42 5.89L117.49 5.89L122.21 13.17L122.21 6.33L120.96 6.16L121.00 5.89L123.90 5.89L123.85 6.16L122.71 6.32L122.71 14.44L122.34 14.52L117.13 6.65L117.13 13.95L118.39 14.08L118.32 14.40L115.45 14.40L115.49 14.11L116.63 13.90L116.63 6.36ZM133.88 10.27L133.86 10.17L133.86 10.17Q134.50 9.47 134.87 9.04L134.87 9.04L137.13 6.33L135.95 6.16L135.97 5.89L138.76 5.89L138.74 6.16L137.69 6.32L134.57 10.10L136.36 12.20L136.36 12.20Q137.16 13.13 137.66 13.54L137.66 13.54L137.66 13.54Q138.16 13.94 138.74 14.03L138.74 14.03L139.11 14.08L139.03 14.38L139.03 14.38Q139.03 14.38 138.90 14.42L138.90 14.42L138.90 14.42Q138.76 14.46 138.71 14.48L138.71 14.48L138.71 14.48Q138.67 14.50 138.60 14.52L138.60 14.52L138.60 14.52Q138.52 14.53 138.46 14.54L138.46 14.54L138.46 14.54Q138.39 14.55 138.30 14.55L138.30 14.55L138.30 14.55Q137.98 14.55 137.68 14.43L137.68 14.43L137.68 14.43Q137.38 14.31 137.07 14.03L137.07 14.03L137.07 14.03Q136.75 13.75 136.54 13.51L136.54 13.51L136.54 13.51Q136.32 13.28 135.95 12.82L135.95 12.82L133.88 10.27ZM132.75 6.33L131.57 6.16L131.61 5.89L134.67 5.89L134.65 6.16L133.49 6.32L133.49 13.95L134.76 14.08L134.69 14.40L131.64 14.40L131.68 14.11L132.75 13.90L132.75 6.33ZM147.98 6.33L146.80 6.16L146.84 5.89L149.97 5.89L149.92 6.16L148.72 6.32L148.72 13.95L150.04 14.08L149.98 14.40L146.87 14.40L146.90 14.11L147.98 13.90L147.98 6.33ZM159.00 6.36L157.73 6.14L157.79 5.89L159.86 5.89L164.58 13.17L164.58 6.33L163.33 6.16L163.37 5.89L166.27 5.89L166.22 6.16L165.08 6.32L165.08 14.44L164.71 14.52L159.50 6.65L159.50 13.95L160.76 14.08L160.69 14.40L157.81 14.40L157.86 14.11L159.00 13.90L159.00 6.36ZM173.98 10.27L173.98 10.27L173.98 10.27Q173.98 9.64 174.15 9.00L174.15 9.00L174.15 9.00Q174.32 8.36 174.67 7.78L174.67 7.78L174.67 7.78Q175.02 7.21 175.50 6.75L175.50 6.75L175.50 6.75Q175.98 6.30 176.64 6.04L176.64 6.04L176.64 6.04Q177.31 5.77 178.07 5.77L178.07 5.77L178.07 5.77Q178.81 5.77 179.51 5.94L179.51 5.94L179.51 5.94Q180.22 6.11 180.69 6.47L180.69 6.47L180.48 8.64L180.17 8.61L179.96 6.99L179.96 6.99Q179.70 6.65 179.15 6.41L179.15 6.41L179.15 6.41Q178.60 6.17 177.84 6.17L177.84 6.17L177.84 6.17Q176.44 6.17 175.60 7.27L175.60 7.27L175.60 7.27Q174.76 8.37 174.76 10.07L174.76 10.07L174.76 10.07Q174.76 10.69 174.87 11.25L174.87 11.25L174.87 11.25Q174.98 11.81 175.23 12.34L175.23 12.34L175.23 12.34Q175.49 12.87 175.86 13.25L175.86 13.25L175.86 13.25Q176.24 13.63 176.83 13.86L176.83 13.86L176.83 13.86Q177.42 14.09 178.15 14.09L178.15 14.09L178.15 14.09Q179.21 14.09 179.93 13.59L179.93 13.59L179.94 11.03L178.29 10.86L178.34 10.60L181.62 10.60L181.57 10.86L180.65 11.01L180.65 13.86L180.65 13.86Q180.00 14.25 179.27 14.39L179.27 14.39L179.27 14.39Q178.53 14.53 177.44 14.53L177.44 14.53L177.44 14.53Q176.74 14.53 176.10 14.23L176.10 14.23L176.10 14.23Q175.47 13.93 175.00 13.39L175.00 13.39L175.00 13.39Q174.54 12.85 174.26 12.04L174.26 12.04L174.26 12.04Q173.98 11.23 173.98 10.27ZM189.41 5.83L189.41 5.83L189.41 5.83Q189.41 5.70 189.55 5.63L189.55 5.63L189.55 5.63Q189.68 5.55 189.88 5.55L189.88 5.55L189.88 5.55Q190.24 5.55 190.24 5.83L190.24 5.83L190.24 5.83Q190.24 7.93 189.91 11.94L189.91 11.94L189.61 11.87L189.61 11.87Q189.41 7.66 189.41 5.83ZM189.37 13.95L189.37 13.95L189.37 13.95Q189.37 13.67 189.48 13.49L189.48 13.49L189.48 13.49Q189.59 13.31 189.76 13.31L189.76 13.31L189.76 13.31Q189.94 13.31 190.06 13.49L190.06 13.49L190.06 13.49Q190.17 13.67 190.17 13.95L190.17 13.95L190.17 13.95Q190.17 14.62 189.77 14.62L189.77 14.62L189.77 14.62Q189.37 14.62 189.37 13.95Z"></path></g></svg>