<svg data-v-fde0c5aa="" xmlns="http://www.w3.org/2000/svg" viewBox="0 0 300 300" class="icon"><!----><defs data-v-fde0c5aa=""><!----></defs><rect data-v-fde0c5aa="" fill="#efb057" x="0" y="0" width="300px" height="300px" class="logo-background-square"></rect><!----><defs data-v-fde0c5aa=""><!----></defs><g data-v-fde0c5aa="" id="16ac0688-00c1-4680-bffc-a67d089869d1" fill="#E56500" stroke="none" transform="matrix(2.2,0,0,2.2,39.999999999999986,39.31359939575195)"><path d="M41.612 74.281v-3.32c-2.225-.104-4.383-.77-5.646-1.503l.997-4.091c1.395.805 3.354 1.539 5.513 1.539 1.927 0 3.221-.805 3.221-2.167 0-1.328-1.063-2.169-3.554-3.042-3.554-1.26-5.978-3.006-5.978-6.396 0-3.111 2.059-5.523 5.612-6.223V45.76h3.254v3.074c2.191.071 3.686.595 4.848 1.154l-.996 3.95c-.832-.42-2.392-1.225-4.784-1.225-2.159 0-2.856 1.016-2.856 1.991 0 1.12 1.162 1.889 4.018 2.973 3.952 1.47 5.514 3.392 5.514 6.571 0 3.111-2.061 5.768-5.879 6.432v3.602h-3.284v-.001z"></path><path d="M52.914 77.525c4.619-3.646 7.553-9.855 7.553-17.031 0-11.292-7.562-20.448-16.884-20.448-9.325 0-16.882 9.156-16.882 20.448 0 7.173 2.908 13.363 7.522 17.013l.046.06H0V35.546h87.66v42.021H52.859l.055-.042zm28.311-6.395v-9.485h-2.709v6.775H64.963v2.71h16.262zm-58.269 0v-2.71H9.405v-6.775H6.694v9.485h16.262zm58.269-19.648v-9.484H64.963v2.708h13.553v6.776h2.709zm-71.82 0v-6.776h13.551v-2.709H6.694v9.485h2.711z"></path><path d="M94.105 70.281h-2.99V31.999H9.979v-2.992h84.126z"></path><path d="M100 63.197h-2.991V26.049H18.367v-2.992H100z"></path></g><!----></svg>